HIERARCHY
ROOT Hips
{
	OFFSET 0.00000 0.00000 0.00000
	CHANNELS 6 Xposition Yposition Zposition Zrotation Yrotation Xrotation 
	JOINT LHipJoint
	{
		OFFSET 0 0 0
		CHANNELS 3 Zrotation Yrotation Xrotation
		JOINT LeftHip
		{
			OFFSET 1.84395 -1.68683 0.74144
			CHANNELS 3 Zrotation Yrotation Xrotation
			JOINT LeftKnee
			{
				OFFSET 2.27037 -6.23779 0.00000
				CHANNELS 3 Zrotation Yrotation Xrotation
				JOINT LeftAnkle
				{
					OFFSET 2.56918 -7.05877 0.00000
					CHANNELS 3 Zrotation Yrotation Xrotation
					JOINT LeftToe
					{
						OFFSET 0.22276 -0.61202 1.71784
						CHANNELS 3 Zrotation Yrotation Xrotation
						End Site
						{
							OFFSET 0.00000 -0.00000 0.91613
						}
					}
				}
			}
		}
	}
	JOINT RHipJoint
	{
		OFFSET 0 0 0
		CHANNELS 3 Zrotation Yrotation Xrotation
		JOINT RightHip
		{
			OFFSET -1.76833 -1.68684 0.74144
			CHANNELS 3 Zrotation Yrotation Xrotation
			JOINT RightKnee
			{
				OFFSET -2.49360 -6.85110 0.00000
				CHANNELS 3 Zrotation Yrotation Xrotation
				JOINT RightAnkle
				{
					OFFSET -2.55538 -7.02085 0.00000
					CHANNELS 3 Zrotation Yrotation Xrotation
					JOINT RightToe
					{
						OFFSET -0.21516 -0.59115 1.68050
						CHANNELS 3 Zrotation Yrotation Xrotation
						End Site
						{
							OFFSET -0.00000 -0.00000 0.89604
						}
					}
				}
			}
		}
	}
	JOINT lowerback
	{
		OFFSET 0 0 0
		CHANNELS 3 Zrotation Yrotation Xrotation
		JOINT Chest
		{
			OFFSET 0.06382 1.72312 -0.19613
			CHANNELS 3 Zrotation Yrotation Xrotation
			JOINT Chest2
			{
				OFFSET -0.00055 1.73507 0.23859
				CHANNELS 3 Zrotation Yrotation Xrotation
				JOINT lowerneck
				{
					OFFSET 0 0 0
					CHANNELS 3 Zrotation Yrotation Xrotation
					JOINT Neck
					{
						OFFSET 0.03638 1.65562 0.09633
						CHANNELS 3 Zrotation Yrotation Xrotation
						JOINT Head
						{
							OFFSET 0.06388 1.62807 -0.32386
							CHANNELS 3 Zrotation Yrotation Xrotation
							End Site
							{
								OFFSET 0.00995 1.67644 -0.12021
							}
						}
					}
				}
				JOINT LeftCollar
				{
					OFFSET 0 0 0
					CHANNELS 3 Zrotation Yrotation Xrotation
					JOINT LeftShoulder
					{
						OFFSET 3.09648 1.42991 0.28122
CHANNELS 3 Zrotation Xrotation Yrotation
						JOINT LeftElbow
						{
OFFSET 0 -5.118780 -0.000000
CHANNELS 3 Zrotation Xrotation Yrotation
							JOINT LeftWrist
							{
OFFSET 0 -3.599710 0.000000
CHANNELS 3 Zrotation Xrotation Yrotation
								JOINT lhand
								{
									OFFSET 0 0 0
CHANNELS 3 Zrotation Xrotation Yrotation
									JOINT LFingers
									{
OFFSET 0 -0.628770 0.000000
CHANNELS 3 Zrotation Xrotation Yrotation
										End Site
										{
OFFSET 0 -0.506930 0.000000
										}
									}
								}
								JOINT LThumb
								{
OFFSET 0 0.000000 0.000000
CHANNELS 3 Zrotation Xrotation Yrotation
									End Site
									{
OFFSET 0 -0.514670 0.514670
									}
								}
							}
						}
					}
				}
				JOINT RightCollar
				{
					OFFSET 0 0 0
					CHANNELS 3 Zrotation Yrotation Xrotation
					JOINT RightShoulder
					{
						OFFSET -3.33565 1.14597 0.05047
CHANNELS 3 Zrotation Xrotation Yrotation
						JOINT RightElbow
						{
OFFSET 0 -5.490200 0.000000
CHANNELS 3 Zrotation Xrotation Yrotation
							JOINT RightWrist
							{
OFFSET 0 -3.206590 -0.000000
CHANNELS 3 Zrotation Xrotation Yrotation
								JOINT rhand
								{
									OFFSET 0 0 0
CHANNELS 3 Zrotation Xrotation Yrotation
									JOINT RFingers
									{
OFFSET 0 -0.691880 0.000000
CHANNELS 3 Zrotation Xrotation Yrotation
										End Site
										{
OFFSET 0 -0.557810 0.000000
										}
									}
								}
								JOINT RThumb
								{
OFFSET 0 0.000000 0.000000
CHANNELS 3 Zrotation Xrotation Yrotation
									End Site
									{
OFFSET 0 -0.566330 0.566330
									}
								}
							}
						}
					}
				}
			}
		}
	}
}
MOTION
Frames: 6
Frame Time: 0.008333333333333333
0.260104 17.562352 9.261257 -11.783374 -1.123081 13.505441 0.000000 0.000000 0.000000 -10.484888 -42.665189 18.038548 0.035878 -1.221901 -3.359567 -4.524825 42.584081 -45.286224 0.496879 4.519331 12.542496 0.000000 0.000000 0.000000 29.376260 21.136828 -5.962544 -0.200863 -2.885815 7.960900 0.171810 -13.112333 -16.349933 -0.000681 -0.172572 0.473986 2.586919 2.309048 5.923417 0.513627 3.422804 -5.635629 -1.371768 1.520327 -9.171867 0.091986 -3.414206 -20.291012 9.295617 -7.166713 20.883367 2.223552 -2.160248 10.445838 0.000000 0.000000 0.000000 10.781926 -48.499667 -60.373210 29.726312 -40.657608 11.230856 54.499085 -48.927319 15.237961 0.000000 0.000000 0.000000 -7.125000 0.000000 0.000000 16.993063 5.741066 15.942513 0.000000 0.000000 0.000000 0.060227 -44.980710 74.369040 -58.516667 -55.900497 -33.110093 11.226599 24.479495 47.987138 0.000000 0.000000 0.000000 7.125000 0.000000 0.000000 68.309477 65.695329 -41.973587
0.287804 17.563389 9.293301 -11.517597 -1.007866 13.219408 0.000000 0.000000 0.000000 -11.376448 -42.784136 18.689836 0.035700 -1.220067 -3.354556 -4.531144 42.615045 -45.330400 0.492605 4.499865 12.487471 0.000000 0.000000 0.000000 29.031540 20.746929 -5.804745 -0.208102 -2.936856 8.102932 0.167619 -13.115562 -16.416236 -0.000056 0.051626 -0.141953 2.440021 2.081967 5.668397 0.531183 3.092065 -5.564342 -1.214127 1.373781 -8.963411 0.563945 -3.228938 -20.390342 8.656566 -6.953813 21.447652 1.954966 -2.075548 10.612131 0.000000 0.000000 0.000000 11.624030 -48.054659 -59.413718 29.817389 -40.736309 11.290218 55.187465 -49.834732 15.358714 0.000000 0.000000 0.000000 -7.125000 0.000000 0.000000 17.353789 5.241075 16.488206 0.000000 0.000000 0.000000 -1.982833 -45.303840 73.727286 -56.382125 -55.257229 -31.350947 11.839164 22.335718 44.226794 0.000000 0.000000 0.000000 7.125000 0.000000 0.000000 62.047247 63.657611 -34.151826
0.303002 17.566471 9.295644 -11.377717 -1.669015 13.098963 0.000000 0.000000 0.000000 -12.213825 -42.724210 19.489306 0.038141 -1.260208 -3.465067 -4.285808 42.738015 -46.494489 0.586662 4.904190 13.635450 0.000000 0.000000 0.000000 28.882363 21.230875 -5.563439 -0.220365 -3.021999 8.339941 0.168440 -13.110550 -16.395216 -0.000329 0.121163 -0.332803 2.360022 2.259296 5.638130 0.358986 3.305222 -5.473397 -1.374944 1.479566 -8.832136 0.601515 -3.260696 -20.378526 8.952432 -7.075004 21.314700 2.034840 -2.097479 10.582041 0.000000 0.000000 0.000000 12.138679 -48.007354 -59.337764 30.038189 -40.926104 11.434577 54.936050 -50.409266 15.449337 0.000000 0.000000 0.000000 -7.125000 0.000000 0.000000 17.185799 5.226325 16.317364 0.000000 0.000000 0.000000 -5.426741 -46.283124 73.061929 -52.636611 -54.004993 -28.293888 13.051300 20.740204 41.694427 0.000000 0.000000 0.000000 7.125000 0.000000 0.000000 59.078015 61.900557 -29.608532
0.324774 17.566678 9.307056 -11.159355 -1.585686 13.504512 0.000000 0.000000 0.000000 -12.532888 -43.440560 19.512481 0.038822 -1.271339 -3.495661 -4.127415 42.875715 -47.333041 0.642712 5.128547 14.275564 0.000000 0.000000 0.000000 28.437475 21.539239 -5.820821 -0.213550 -2.974836 8.208629 0.191644 -13.398416 -16.529844 -0.000219 0.090213 -0.247770 2.109278 2.259834 5.552655 0.484355 3.295542 -5.710625 -1.104155 1.490727 -9.062682 0.285969 -3.361994 -20.054974 9.160963 -7.108759 20.843487 2.153598 -2.143571 10.370915 0.000000 0.000000 0.000000 12.031116 -47.381492 -59.602665 30.894367 -41.647677 11.999622 55.022984 -50.862248 16.213600 0.000000 0.000000 0.000000 -7.125000 0.000000 0.000000 17.027588 4.060403 16.540863 0.000000 0.000000 0.000000 -10.733840 -44.894117 69.908310 -61.429180 -56.663429 -35.536022 11.114559 21.144702 39.901035 0.000000 0.000000 0.000000 7.125000 0.000000 0.000000 54.862729 61.324936 -26.011589
0.344970 17.564533 9.326469 -11.125372 -0.677832 13.608028 0.000000 0.000000 0.000000 -12.486927 -44.214341 19.502170 0.039967 -1.290041 -3.547322 -4.388913 43.059176 -46.805765 0.596346 4.943616 13.747761 0.000000 0.000000 0.000000 28.341911 21.445605 -5.775276 -0.199635 -2.877176 7.937092 0.254650 -14.161725 -16.905618 -0.000133 0.086208 -0.236796 2.228049 1.834630 5.413751 0.891677 2.765455 -5.785204 -0.667169 1.239182 -9.094184 0.235291 -3.279232 -20.142382 8.545099 -6.885724 21.478876 1.982467 -2.092061 10.576299 0.000000 0.000000 0.000000 12.373082 -46.702405 -59.309241 31.270557 -41.957813 12.250371 55.423854 -51.500887 16.144911 0.000000 0.000000 0.000000 -7.125000 0.000000 0.000000 17.273124 3.963582 16.835859 0.000000 0.000000 0.000000 -16.605828 -43.486014 67.001521 -72.709381 -58.833851 -45.085121 9.931668 21.786362 38.627481 0.000000 0.000000 0.000000 7.125000 0.000000 0.000000 52.124757 60.802651 -23.653045
0.354238 17.568016 9.319812 -10.805711 -0.364940 13.393417 0.000000 0.000000 0.000000 -12.654394 -43.998039 19.219001 0.039239 -1.278029 -3.514228 -4.576260 42.909523 -45.809307 0.539175 4.704750 13.068240 0.000000 0.000000 0.000000 28.000655 21.657384 -5.567612 -0.205992 -2.921966 8.061644 0.292985 -14.723483 -17.335035 -0.000100 -0.056693 0.155686 2.157114 1.448542 5.753428 1.035182 2.262033 -5.834201 -0.420808 0.999038 -9.370585 0.564651 -3.052294 -19.949545 7.888718 -6.544465 22.014706 1.751976 -1.974160 10.677754 0.000000 0.000000 0.000000 12.873123 -46.111308 -58.225061 31.425721 -42.084501 12.354147 55.186837 -52.109487 15.822144 0.000000 0.000000 0.000000 -7.125000 0.000000 0.000000 17.227052 4.555864 16.587910 0.000000 0.000000 0.000000 -21.088293 -42.875344 65.447435 -74.048901 -59.015415 -46.231736 9.709682 22.700147 34.568134 0.000000 0.000000 0.000000 7.125000 0.000000 0.000000 47.065348 58.061683 -17.528638
